<?xml version="1.0" encoding="UTF-8" standalone="no"?>
<!-- Created with Inkscape (http://www.inkscape.org/) -->

<svg
   xmlns:dc="http://purl.org/dc/elements/1.1/"
   xmlns:cc="http://creativecommons.org/ns#"
   xmlns:rdf="http://www.w3.org/1999/02/22-rdf-syntax-ns#"
   xmlns:svg="http://www.w3.org/2000/svg"
   xmlns="http://www.w3.org/2000/svg"
   xmlns:sodipodi="http://sodipodi.sourceforge.net/DTD/sodipodi-0.dtd"
   xmlns:inkscape="http://www.inkscape.org/namespaces/inkscape"
   width="800px"
   height="600px"
   id="svg3217"
   version="1.1"
   inkscape:version="0.48.3.1 r9886"
   sodipodi:docname="New document 13">
  <defs
     id="defs3219" />
  <sodipodi:namedview
     id="base"
     pagecolor="#ffffff"
     bordercolor="#666666"
     borderopacity="1.0"
     inkscape:pageopacity="0.0"
     inkscape:pageshadow="2"
     inkscape:zoom="0.6"
     inkscape:cx="370.83333"
     inkscape:cy="433.33333"
     inkscape:current-layer="layer1"
     inkscape:document-units="px"
     showgrid="false"
     inkscape:window-width="1920"
     inkscape:window-height="1056"
     inkscape:window-x="0"
     inkscape:window-y="24"
     inkscape:window-maximized="1" />
  <metadata
     id="metadata3222">
    <rdf:RDF>
      <cc:Work
         rdf:about="">
        <dc:format>image/svg+xml</dc:format>
        <dc:type
           rdf:resource="http://purl.org/dc/dcmitype/StillImage" />
        <dc:title></dc:title>
      </cc:Work>
    </rdf:RDF>
  </metadata>
  <g
     id="layer1"
     inkscape:label="Layer 1"
     inkscape:groupmode="layer">
    <path
       style="fill:#000000;fill-rule:evenodd;fill-opacity:1"
       d="m 339.98454,45.572863 c -27.66283,10.312202 10.01432,35.720217 4.02077,54.763677 -1.75253,14.24784 -30.08484,34.2213 -24.62245,8.57632 -4.20102,-26.1462 -29.57139,-7.24527 -43.4327,-3.41202 -4.29792,-12.85148 -1.43328,-37.826807 -24.16557,-30.514157 -22.74751,13.612567 -0.99128,38.538767 0.0945,56.880147 -7.74008,10.98136 -9.60917,35.06674 10.84817,26.53773 9.1638,-4.82025 20.45302,-37.65464 21.89851,-11.70501 -8.66767,18.87173 17.14844,38.05597 25.27632,15.36481 21.04578,-0.92538 -9.9834,39.34024 13.95565,43.2923 14.14273,3.2945 32.62766,-26.96483 35.03724,-0.025 8.47787,13.76788 22.33113,23.27172 30.62327,37.38235 12.73038,12.99333 6.95064,31.88432 -13.23113,27.83299 -18.04003,-0.67438 -36.36331,12.06863 -36.4142,31.22994 -0.50479,19.68675 17.92237,26.425 25.24368,40.63795 44.61245,63.84274 90.38993,126.87011 136.25182,189.80186 11.39562,15.1325 31.00761,34.82894 34.25895,11.40267 -0.73976,-20.84814 -9.8461,-40.20906 -14.87004,-61.57172 -22.79498,-67.27166 -44.73623,-135.38051 -53.36443,-206.15934 -0.35177,-19.50685 -19.70128,-29.34303 -36.84302,-22.22602 -19.847,13.89348 -0.0508,-20.598 -8.20271,-31.61697 -5.53719,-30.1938 -30.14492,-55.37589 -24.91732,-87.67278 9.13689,-22.01618 0.69907,-42.02267 -6.55411,-62.681427 -1.70128,-18.583729 -39.80235,2.296328 -43.02524,-23.041437 -1.90877,-2.245083 -4.96279,-3.33973 -7.86575,-3.075525 z M 440.29614,273.1471 c 15.94299,7.50131 9.86974,33.02638 16.70111,48.15089 -3.40947,18.37739 -50.66315,13.6583 -30.88708,39.51267 12.89339,2.95414 40.88269,-21.14445 35.97891,7.63425 -13.63651,7.70375 -17.28199,23.68064 2.06952,25.54246 16.43355,8.72071 14.18156,28.80049 20.77814,43.37881 9.19512,15.31489 13.59178,32.67707 17.40595,49.912 -9.8554,16.68326 -22.41261,-17.89686 -30.62577,-26.08912 -21.87765,-12.96212 20.17104,-41.67827 -14.16732,-42.34506 -24.19845,-2.57682 -32.71218,-30.20257 -45.25243,-47.255 -17.88265,-10.85997 -24.46356,-41.67262 1.31677,-46.47694 17.48826,-24.89031 -23.66346,-26.06454 -34.40917,-9.68789 -14.08673,8.57273 -35.2481,-20.86911 -10.65424,-22.45208 20.66108,-6.72291 42.77621,-8.37896 62.9378,-17.34358 2.9098,-0.91601 5.84268,-1.76237 8.80781,-2.48141 z"
       id="path13"
       inkscape:connector-curvature="0"
       sodipodi:nodetypes="ccccccccccccccccccccccccccccccccccccccccc" />
  </g>
</svg>
